<svg xmlns="http://www.w3.org/2000/svg" x="0px" y="0px" width="50" height="50" viewBox="0 0 50 50">
<polygon fill="#66e1ff" points="39,16.917 29,6.525 19,5.37 12,9.411 8,18.649 12,32.506 22,42.898 32,44.053 39,40.011 43,30.773"></polygon><polygon fill="#5ccae6" points="12,9.412 19,5.37 29,6.525 22,10.566"></polygon><polygon fill="#57bfd9" points="32,20.959 39,16.917 29,6.525 22,10.566"></polygon><polygon fill="#479db3" points="32,44.053 39,40.011 43,30.774 36,34.815"></polygon><polygon fill="#4da9bf" points="32,20.959 39,16.917 43,30.774 36,34.815"></polygon><polygon fill="#479db3" points="24,22.113 24,18.649 21,16.917 21,20.381"></polygon><polygon fill="#479db3" points="24,37.124 24,25.577 21,23.845 21,35.392"></polygon>
</svg>