<svg xmlns="http://www.w3.org/2000/svg" x="0px" y="0px" width="50" height="50" viewBox="0 0 50 50">
<path fill="#ccc" d="M34.826,29.763l2.455-1.121l-2.706-7.077l-3.097-0.555l-4.704-5.92l-0.639-4.13L20.72,7.83	l-0.638,3.397l-4.704,0.488L12.28,8.69l-2.71,3.96l2.46,3.95v6.39l-2.46,1.12l2.71,7.08l3.1,0.55l4.7,5.92l0.64,4.14l5.41,3.12	l0.643-3.392l4.707-0.488l3.09,3.02l2.71-3.952l-2.455-3.955V29.763z M23.427,31.684l-3.907-4.908l0-5.308l3.907-0.397l3.903,4.909	l0.004,5.306L23.427,31.684z"></path><polygon fill="#737373" points="23.427,21.071 23.77,21.5 23.77,24.32 19.521,26.776 19.521,21.468"></polygon><polygon fill="#8c8c8c" points="23.77,24.32 27.33,28.8 27.334,29.423 23.427,31.684 19.521,26.776"></polygon><polygon fill="#a8a8a8" points="27.334,29.423 27.334,31.286 23.427,31.684"></polygon><polygon fill="#8c8c8c" points="12.28,8.69 16.53,6.24 19.62,9.26 15.378,11.715"></polygon><polygon fill="#a8a8a8" points="20.72,7.83 24.97,5.38 30.376,8.505 26.134,10.959"></polygon><polygon fill="#737373" points="26.773,15.09 31.023,12.64 30.376,8.505 26.134,10.959"></polygon><polygon fill="#8c8c8c" points="26.773,15.09 31.023,12.64 35.719,18.555 31.477,21.01"></polygon><polygon fill="#a8a8a8" points="34.574,21.565 38.824,19.115 35.719,18.555 31.477,21.01"></polygon><polygon fill="#8c8c8c" points="34.574,21.565 38.824,19.115 41.522,26.187 37.28,28.642"></polygon><polygon fill="#a8a8a8" points="20.082,11.227 15.378,11.715 19.62,9.26 20.47,9.18"></polygon><polygon fill="#737373" points="39.07,33.7 39.07,27.607 37.28,28.642 34.826,29.763 34.826,36.153"></polygon><polygon fill="#8c8c8c" points="39.07,33.7 41.53,37.66 37.28,40.108 34.826,36.153"></polygon><polygon fill="#737373" points="26.773,41.528 26.13,44.92 30.38,42.47 30.612,41.13"></polygon><polygon fill="#737373" points="34.57,44.06 37.28,40.108 41.53,37.66 38.82,41.61"></polygon>
</svg>